<svg width="12" height="15" viewBox="0 0 12 15" fill="none" xmlns="http://www.w3.org/2000/svg">
<path fill-rule="evenodd" clip-rule="evenodd" d="M9.35 14.6674H3.11667C2.77241 14.6674 2.49333 14.4008 2.49333 14.072C2.49333 13.7432 2.77241 13.4766 3.11667 13.4766H9.35C9.69426 13.4766 9.97333 13.2101 9.97333 12.8813V10.4104C9.94195 10.0764 9.73218 9.78143 9.41857 9.63049C6.97534 8.68827 4.24466 8.68827 1.80143 9.63049C1.48782 9.78143 1.27805 10.0764 1.24667 10.4104V14.072C1.24667 14.4008 0.967591 14.6674 0.623333 14.6674C0.279076 14.6674 0 14.4008 0 14.072V10.4104C0.0275652 9.58862 0.546236 8.85477 1.33393 8.52308C4.0769 7.46438 7.1431 7.46438 9.88607 8.52308C10.6738 8.85477 11.1924 9.58862 11.22 10.4104V12.8813C11.22 13.8677 10.3828 14.6674 9.35 14.6674ZM8.72761 3.35434C8.72761 1.71024 7.33223 0.377441 5.61095 0.377441C3.88966 0.377441 2.49428 1.71024 2.49428 3.35434C2.49428 4.99843 3.88966 6.33123 5.61095 6.33123C7.33223 6.33123 8.72761 4.99843 8.72761 3.35434V3.35434ZM7.47999 3.35485C7.47999 4.34131 6.64276 5.14099 5.60999 5.14099C4.57722 5.14099 3.73999 4.34131 3.73999 3.35485C3.73999 2.3684 4.57722 1.56872 5.60999 1.56872C6.64276 1.56872 7.47999 2.3684 7.47999 3.35485Z" fill="white"/>
</svg>
