<svg width="27" height="23" viewBox="0 0 27 23" fill="none" xmlns="http://www.w3.org/2000/svg">
<path fill-rule="evenodd" clip-rule="evenodd" d="M22.1255 14.6435H9.90726C8.25407 14.644 6.83547 13.4658 6.53238 11.8407L4.94219 3.22615C4.84155 2.67577 4.3576 2.27893 3.79816 2.28805H1.14403C0.512198 2.28805 0 1.77585 0 1.14403C0 0.512198 0.512198 1.38817e-07 1.14403 1.38817e-07H3.82104C5.47423 -0.000466918 6.89283 1.17769 7.19592 2.80286L8.78611 11.4174C8.88675 11.9678 9.37071 12.3646 9.93014 12.3555H22.1369C22.6963 12.3646 23.1803 11.9678 23.2809 11.4174L24.7224 3.638C24.7841 3.30085 24.6914 2.95378 24.4698 2.69229C24.2482 2.4308 23.9211 2.28244 23.5784 2.28805H10.2962C9.6644 2.28805 9.1522 1.77585 9.1522 1.14403C9.1522 0.512198 9.6644 1.38817e-07 10.2962 1.38817e-07H23.5669C24.5875 -0.000288208 25.5553 0.45364 26.2075 1.23857C26.8598 2.02351 27.1289 3.05801 26.9418 4.06129L25.5003 11.8407C25.1972 13.4658 23.7786 14.644 22.1255 14.6435ZM14.8729 19.2206C14.8729 17.3252 13.3363 15.7886 11.4409 15.7886C10.809 15.7886 10.2968 16.3008 10.2968 16.9326C10.2968 17.5644 10.809 18.0766 11.4409 18.0766C12.0727 18.0766 12.5849 18.5888 12.5849 19.2206C12.5849 19.8525 12.0727 20.3647 11.4409 20.3647C10.809 20.3647 10.2968 19.8525 10.2968 19.2206C10.2968 18.5888 9.78464 18.0766 9.15281 18.0766C8.52099 18.0766 8.00879 18.5888 8.00879 19.2206C8.00879 21.1161 9.54538 22.6527 11.4409 22.6527C13.3363 22.6527 14.8729 21.1161 14.8729 19.2206ZM21.7382 21.5085C21.7382 20.8766 21.226 20.3644 20.5942 20.3644C19.9624 20.3644 19.4502 19.8522 19.4502 19.2204C19.4502 18.5886 19.9624 18.0764 20.5942 18.0764C21.226 18.0764 21.7382 18.5886 21.7382 19.2204C21.7382 19.8522 22.2504 20.3644 22.8822 20.3644C23.5141 20.3644 24.0263 19.8522 24.0263 19.2204C24.0263 17.3249 22.4897 15.7883 20.5942 15.7883C18.6987 15.7883 17.1621 17.3249 17.1621 19.2204C17.1621 21.1159 18.6987 22.6525 20.5942 22.6525C21.226 22.6525 21.7382 22.1403 21.7382 21.5085Z" fill="white"/>
</svg>
